<?xml version="1.0" standalone="no"?>
<!DOCTYPE svg PUBLIC "-//W3C//DTD SVG 20010904//EN"
 "http://www.w3.org/TR/2001/REC-SVG-20010904/DTD/svg10.dtd">
<svg version="1.0" xmlns="http://www.w3.org/2000/svg"
 width="1000.000000pt" height="1000.000000pt" viewBox="0 0 1000.000000 1000.000000"
 preserveAspectRatio="xMidYMid meet">
<metadata>
Created by potrace 1.11, written by Peter Selinger 2001-2013
</metadata>
<g transform="translate(0.000000,1000.000000) scale(0.100000,-0.100000)"
fill="#000000" stroke="none">
<path d="M5710 6980 c-95 -28 -247 -107 -420 -220 -84 -55 -160 -100 -169
-100 -9 0 -36 -16 -60 -35 -25 -20 -51 -33 -58 -30 -8 2 -12 1 -9 -4 3 -5 -9
-18 -27 -30 -81 -53 -126 -87 -257 -196 -47 -40 -107 -88 -133 -108 l-49 -37
-301 0 c-166 0 -387 -6 -492 -14 -104 -8 -262 -17 -350 -21 -182 -7 -414 -28
-625 -56 -80 -10 -194 -24 -255 -29 -226 -21 -326 -36 -465 -70 -19 -5 -57
-14 -85 -21 -27 -7 -129 -42 -225 -79 -96 -37 -227 -80 -290 -95 -193 -46
-378 -103 -520 -162 -173 -72 -217 -94 -315 -157 -44 -29 -109 -71 -146 -94
-78 -50 -112 -85 -128 -131 -16 -49 -14 -71 11 -111 12 -19 27 -49 33 -66 12
-32 94 -142 107 -143 4 -1 29 -22 55 -49 48 -48 130 -107 167 -122 12 -4 52
-29 91 -54 38 -25 75 -46 83 -46 8 0 29 -9 48 -20 30 -19 165 -77 274 -119 25
-10 63 -25 85 -35 82 -36 101 -43 135 -54 45 -15 379 -101 440 -114 25 -5 54
-13 65 -18 11 -5 43 -12 70 -15 56 -7 189 -39 250 -60 48 -16 407 -100 485
-114 30 -5 82 -15 115 -21 240 -48 538 -72 804 -65 351 9 503 9 546 -1 44 -10
89 -65 99 -120 10 -52 93 -261 142 -358 25 -50 59 -128 74 -174 25 -76 46
-122 33 -73 -4 14 0 23 13 28 11 3 23 13 27 20 5 7 12 11 17 8 5 -3 12 0 15 5
4 7 19 9 35 5 16 -3 31 -2 35 4 3 6 15 11 25 11 10 0 34 18 53 41 31 35 36 38
45 23 8 -15 12 -13 33 15 13 17 29 29 36 27 10 -4 10 -1 1 14 -10 15 -9 23 6
39 10 11 20 40 22 66 4 54 11 68 29 61 7 -2 16 2 19 10 3 8 12 14 21 14 23 0
18 15 -16 49 -30 31 -31 51 -3 51 8 0 17 -6 20 -14 8 -21 56 31 52 56 -2 12
-19 29 -38 39 -19 10 -46 31 -59 46 -22 25 -22 27 -5 40 11 8 31 10 57 6 43
-7 43 -6 5 49 -22 31 -11 42 31 33 32 -7 52 19 24 30 -12 4 -13 9 -5 17 14 14
67 -6 57 -22 -3 -6 -2 -10 2 -10 5 0 13 10 18 22 8 17 24 26 70 35 108 23 129
32 175 75 65 62 86 70 275 104 148 27 182 28 212 8 16 -10 32 -17 36 -16 4 1
38 -24 75 -55 37 -32 88 -74 115 -92 26 -19 47 -37 47 -41 0 -7 185 -161 328
-272 107 -83 229 -146 300 -155 40 -4 52 -3 54 8 2 23 5 33 13 52 4 9 3 23 -3
30 -5 6 -13 29 -16 51 -4 21 -18 56 -31 76 -13 21 -21 41 -17 44 9 9 2 99 -9
112 -6 7 -3 23 7 43 10 20 15 57 15 105 0 64 3 76 23 95 13 13 27 39 31 59 4
21 11 42 17 49 5 7 7 20 4 31 -7 21 52 92 76 92 14 0 29 23 42 62 4 14 -4 20
-37 28 -87 22 -179 55 -178 65 0 6 16 14 33 18 18 4 47 14 63 22 33 15 161 35
229 35 23 0 45 3 48 6 3 3 44 7 89 9 46 2 112 8 146 14 35 6 165 12 290 14
206 1 236 0 313 -20 185 -48 357 -131 651 -316 101 -63 232 -140 291 -170 59
-30 119 -64 134 -76 14 -11 70 -35 123 -52 119 -38 406 -99 467 -99 50 0 105
21 142 54 20 17 22 26 16 66 -8 51 -23 80 -71 130 -18 19 -52 61 -75 92 -110
145 -264 318 -327 368 -24 19 -74 58 -111 85 -82 61 -109 92 -144 170 -37 80
-45 166 -21 231 24 64 30 71 84 100 25 13 66 42 91 64 40 36 43 42 28 51 -27
15 -22 25 27 49 24 12 67 46 94 76 50 54 111 138 111 152 0 4 14 20 32 35 17
16 32 38 33 49 1 15 12 25 33 32 34 12 61 41 62 67 0 9 7 22 16 30 8 7 22 26
31 43 15 29 15 31 -15 57 -36 33 -122 45 -239 35 -175 -14 -501 -130 -798
-283 -150 -77 -331 -165 -345 -168 -9 -2 -34 -8 -56 -14 -152 -40 -186 -44
-364 -48 -102 -2 -231 1 -287 7 -141 15 -748 134 -973 190 -63 16 -176 41
-250 55 -74 13 -178 33 -230 44 -52 11 -120 22 -150 26 -30 4 -140 22 -245 41
-104 18 -204 36 -221 39 -17 3 -39 12 -50 19 -18 14 -18 15 10 45 16 16 56 46
90 67 128 77 192 119 234 152 39 31 42 37 42 82 0 27 -5 52 -10 55 -11 7 -7
148 5 178 6 15 4 18 -11 15 -24 -4 -31 34 -9 52 8 7 15 23 15 36 0 12 5 26 12
30 7 5 4 10 -11 16 -23 8 -21 28 3 28 19 0 32 38 35 95 1 30 8 54 16 61 13 10
12 13 -3 28 -24 21 -70 19 -152 -4z"/>
</g>
</svg>
